<svg data-v-0dd9719b="" version="1.0" xmlns="http://www.w3.org/2000/svg" xmlns:xlink="http://www.w3.org/1999/xlink" width="100%" height="100%" viewBox="0 0 340.000000 250.000000" preserveAspectRatio="xMidYMid meet" color-interpolation-filters="sRGB" style="margin: auto;"> <rect data-v-0dd9719b="" x="0" y="0" width="100%" height="100%" fill="#feffff" fill-opacity="1" class="background"></rect> <rect data-v-0dd9719b="" x="0" y="0" width="100%" height="100%" fill="url(#watermark)" fill-opacity="1" class="watermarklayer"></rect> <g data-v-0dd9719b="" fill="#0c0c0c" class="iconlinesvg-g iconlinesvg" transform="translate(92.42192888259888,83.34406280517578)"><g class="tp-name"><g transform="translate(0, 0)"><g data-gra="path-name" fill="#0c0c0c" transform="scale(1)"><path d="M30.94-57.30L15.47-57.30L15.47-37.27L30.94-37.27Q44.65-36.91 44.30-47.81L44.30-47.81Q44.30-57.30 30.94-57.30L30.94-57.30ZM34.45 0L6.68 0L6.68-64.34L35.16-64.34Q52.38-63.63 53.09-48.16L53.09-48.16Q53.09-38.67 44.65-34.80L44.65-34.80Q56.60-30.59 56.60-18.98L56.60-18.98Q55.55-0.70 34.45 0L34.45 0ZM32.34-29.88L15.47-29.88L15.47-7.38L34.10-7.38Q47.46-7.73 47.81-18.98L47.81-18.98Q47.81-29.88 32.34-29.88L32.34-29.88Z" transform="translate(-6.6796875, 64.3359375)"></path></g></g><g transform="translate(53, 0)"><g data-gra="path-name" fill="#0c0c0c" transform="scale(1)"><path d="M5.98-64.34L14.06-64.34L14.06 0L5.98 0L5.98-64.34Z" transform="translate(-5.9765625, 64.3359375)"></path></g></g><g transform="translate(65, 11.605356041658478)"><g><g class="imagesvg"><g><rect fill="#0c0c0c" fill-opacity="0" stroke-width="2" x="0" y="0" width="45.87384375" height="60.109600416683044" class="image-rect"></rect> <svg x="0" y="0" width="45.87384375" height="60.109600416683044" filtersec="colorsb5833074874" class="image-svg-svg primary" style="overflow: visible;"><svg xmlns="http://www.w3.org/2000/svg" viewBox="0.9797134399414062 0.8300000429153442 75.05057525634766 98.33999633789062"><path fill="#0C0C0C" d="M6.2 49.86c0-17.53 14.36-31.74 31.74-31.74h5.33v-7.01l14.69 9.7-14.69 9.69v-6.78h-5.33c-14.01.19-25.8 11.83-25.8 26.16 0 4.51 1.18 8.95 3.43 12.86l3.92-3.92a20.485 20.485 0 0 1-2.03-8.94c0-11.37 9.27-20.64 20.48-20.83v11.72L67.89 20.8 37.94.83v11.96C17.45 12.88.9 29.56.98 50.05c.03 7.43 2.29 14.67 6.48 20.8l3.82-3.82A31.498 31.498 0 0 1 6.2 49.86zM70.8 50.07c0 17.53-14.36 31.67-31.74 31.67h-5.32v7.15l-14.69-9.7 14.69-9.7v6.65h5.33c14.01-.19 25.79-11.69 25.79-26.02 0-4.51-1.18-8.95-3.44-12.86l-3.92 3.92c1.34 2.79 2.04 5.84 2.03 8.94 0 11.37-9.25 20.64-20.46 20.83V59.22L9.12 79.2l29.95 19.97V87.21c20.5-.09 37.04-16.77 36.96-37.26a37.142 37.142 0 0 0-6.48-20.8l-3.82 3.79a31.44 31.44 0 0 1 5.07 17.13z"></path></svg></svg> <!----></g></g></g></g><g transform="translate(114, 0)"><g data-gra="path-name" fill="#0c0c0c" transform="scale(1)"><path d="M11.95-23.55L11.95-23.55Q12.30-5.63 24.61-5.27L24.61-5.27Q36.91-6.33 37.27-21.09L37.27-21.09Q37.62-41.13 24.61-41.13L24.61-41.13Q11.60-41.13 11.95-23.55ZM37.27-47.11L44.65-47.11L44.65-3.87Q45.35 18.98 23.20 18.98L23.20 18.98Q6.68 18.98 4.92 4.92L4.92 4.92L13.01 4.92Q14.41 12.66 23.55 12.66L23.55 12.66Q37.62 12.66 36.91-3.16L36.91-3.16L36.91-5.27L36.91-4.92Q32.70 0.70 24.26 0.70L24.26 0.70Q4.57 0 3.52-24.96L3.52-24.96Q4.57-47.46 23.20-48.52L23.20-48.52Q31.99-48.52 37.27-40.43L37.27-40.43L37.27-47.11Z" transform="translate(-3.515625, 64.3359375)"></path></g></g></g> <!----></g><defs v-gra="od"></defs></svg>